<svg width="76" height="76" viewBox="0 0 76 76" fill="none" xmlns="http://www.w3.org/2000/svg">
<path d="M22.2459 53.7572C22.6784 54.2053 22.9175 54.8054 22.9118 55.4281C22.9061 56.0508 22.656 56.6464 22.2155 57.0865C21.7749 57.5267 21.1791 57.7761 20.5564 57.7813C19.9337 57.7864 19.3338 57.5467 18.8861 57.1139L22.2459 53.7572ZM57.1109 18.8859C57.3443 19.1033 57.5314 19.3655 57.6612 19.6568C57.791 19.9482 57.8609 20.2627 57.8665 20.5816C57.8721 20.9004 57.8134 21.2172 57.694 21.5129C57.5745 21.8087 57.3968 22.0773 57.1712 22.3028C56.9457 22.5284 56.6771 22.7061 56.3813 22.8256C56.0856 22.945 55.7688 23.0037 55.45 22.9981C55.1311 22.9925 54.8166 22.9227 54.5252 22.7928C54.2339 22.663 53.9717 22.4759 53.7543 22.2425L57.1109 18.8859ZM14.1044 57.2437L18.7563 61.8924L15.3996 65.249L10.7478 60.6035L14.1044 57.2437ZM61.8926 18.756L57.2439 14.1074L60.6006 10.7507L65.2524 15.3962L61.8926 18.756ZM61.8926 24.6967C63.0358 23.5535 63.7229 22.86 64.1504 22.2995C64.2737 22.1475 64.3789 21.9818 64.4639 21.8055C64.4893 21.7422 64.4861 21.7295 64.4861 21.7264H69.2361C69.2361 23.1355 68.6344 24.2502 67.9283 25.178C67.2601 26.0552 66.3006 27.0084 65.2524 28.0565L61.8926 24.6967ZM65.2493 15.3962C66.3006 16.4444 67.2601 17.3975 67.9283 18.2715C68.6344 19.2025 69.2361 20.3172 69.2361 21.7264H64.4861C64.4861 21.7264 64.4861 21.7105 64.4639 21.6472C64.3789 21.471 64.2737 21.3052 64.1504 21.1532C63.7229 20.5927 63.0358 19.8992 61.8926 18.756L65.2493 15.3962ZM18.7563 61.8924C19.8994 63.0355 20.5961 63.7227 21.1566 64.1502C21.3086 64.2734 21.4744 64.3786 21.6506 64.4637C21.7139 64.489 21.7266 64.4859 21.7298 64.4859V69.2359C20.3206 69.2359 19.2059 68.6342 18.2781 67.928C17.4009 67.2599 16.4478 66.3004 15.3996 65.2522L18.7563 61.8924ZM28.0599 65.249C27.0118 66.3004 26.0586 67.2599 25.1846 67.928C24.2536 68.6342 23.1389 69.2359 21.7298 69.2359V64.4859C21.7298 64.4859 21.7456 64.4859 21.8089 64.4637C21.9852 64.3786 22.1509 64.2734 22.3029 64.1502C22.8634 63.7227 23.5569 63.0355 24.7001 61.8924L28.0599 65.249ZM14.1108 51.303C12.9676 52.4462 12.2804 53.1397 11.8529 53.7002C11.7297 53.8522 11.6245 54.018 11.5394 54.1942C11.5141 54.2575 11.5173 54.2702 11.5173 54.2734H6.76728C6.76728 52.8642 7.36894 51.7495 8.07511 50.8217C8.74328 49.9445 9.70278 48.9945 10.7509 47.9432L14.1108 51.303ZM10.7541 60.6035C9.70278 59.5522 8.74328 58.6022 8.07511 57.7282C7.36894 56.7972 6.76728 55.6825 6.76728 54.2734H11.5173C11.5173 54.2734 11.5173 54.2892 11.5394 54.3525C11.6285 54.5265 11.7334 54.6919 11.8529 54.8465C12.2804 55.407 12.9676 56.1005 14.1108 57.2437L10.7541 60.6035ZM47.9434 10.7475C48.9948 9.69938 49.9448 8.73988 50.8188 8.07171C51.7498 7.36555 52.8644 6.76388 54.2736 6.76388V11.5139C54.2736 11.5139 54.2578 11.5139 54.1944 11.536C54.0182 11.6211 53.8524 11.7263 53.7004 11.8495C53.1399 12.277 52.4464 12.9642 51.3033 14.1074L47.9434 10.7475ZM57.2439 14.1074C56.1008 12.9674 55.4073 12.277 54.8468 11.8495C54.6948 11.7263 54.529 11.6211 54.3528 11.536C54.2894 11.5107 54.2768 11.5139 54.2736 11.5139V6.76388C55.6828 6.76388 56.7974 7.36555 57.7253 8.07171C58.6024 8.73988 59.5556 9.69938 60.6038 10.7475L57.2439 14.1074ZM30.3811 61.8955L32.7054 64.2199L29.3488 67.5797L27.0213 65.2522L30.3811 61.8955ZM40.9704 64.2199C42.0883 63.1052 42.8103 62.3769 43.3138 61.7752C43.7919 61.1989 43.9123 60.917 43.9566 60.746L48.5451 61.981C48.2474 63.0894 47.6521 63.9887 46.9618 64.8184C46.2904 65.6227 45.3848 66.5252 44.3303 67.5797L40.9704 64.2199ZM44.3271 52.5982C45.3848 53.6527 46.2904 54.5552 46.9618 55.3595C47.6521 56.1892 48.2474 57.0885 48.5451 58.1969L43.9566 59.4255C43.9123 59.2577 43.7919 58.9759 43.3138 58.4027C42.8103 57.801 42.0883 57.0727 40.9704 55.9549L44.3271 52.5982ZM43.9566 60.746C44.0739 60.3126 44.0739 59.859 43.9566 59.4255L48.5451 58.1969C48.8776 59.435 48.8776 60.7397 48.5451 61.981L43.9566 60.746ZM44.3334 67.5765C43.2758 68.631 42.3733 69.5399 41.5689 70.208C40.7393 70.9015 39.8399 71.4969 38.7316 71.7914L37.5029 67.206C37.6708 67.1585 37.9526 67.0414 38.5289 66.56C39.1306 66.0597 39.8589 65.3345 40.9736 64.2167L44.3334 67.5765ZM32.7086 64.2199C33.8264 65.3345 34.5516 66.0565 35.1533 66.5632C35.7296 67.0382 36.0114 67.1585 36.1793 67.206L34.9506 71.7914C33.8423 71.4969 32.9429 70.9015 32.1133 70.208C31.3058 69.5367 30.4033 68.6342 29.3488 67.5797L32.7086 64.2199ZM38.7316 71.7914C37.4932 72.1242 36.189 72.1242 34.9506 71.7914L36.1793 67.206C36.6127 67.3233 37.0695 67.3233 37.5029 67.206L38.7316 71.7914ZM11.7801 35.0295C10.9658 35.8119 10.184 36.6275 9.43678 37.4742C8.96178 38.0505 8.84144 38.3324 8.79711 38.5002L4.20544 37.2715C4.50311 36.1632 5.09844 35.2639 5.78878 34.4342C6.46328 33.6299 7.36894 32.7242 8.42344 31.6697L11.7801 35.0295ZM8.42344 46.6512C7.36894 45.5967 6.46011 44.6974 5.79194 43.8899C5.09844 43.0602 4.50311 42.1609 4.20861 41.0525L8.79711 39.8239C8.84144 39.9917 8.95861 40.2735 9.43994 40.8499C9.94028 41.4515 10.6654 42.1799 11.7833 43.2945L8.42344 46.6512ZM8.79711 38.5002C8.6798 38.9336 8.6798 39.3904 8.79711 39.8239L4.20544 41.0525C3.8726 39.8142 3.8726 38.5099 4.20544 37.2715L8.79711 38.5002ZM8.42344 31.6697C9.47794 30.6152 10.3804 29.7095 11.1848 29.0414C12.0144 28.3447 12.9138 27.7525 14.0221 27.458L15.2539 32.0434C15.0861 32.0877 14.8043 32.208 14.2279 32.6862C13.6263 33.1897 12.8948 33.9117 11.7801 35.0295L8.42344 31.6697ZM20.0451 35.0295C19.2627 34.2152 18.4471 33.4335 17.6004 32.6862C17.0273 32.208 16.7454 32.0877 16.5776 32.0434L17.8063 27.4549C18.9146 27.7525 19.8139 28.3479 20.6436 29.0382C21.4479 29.7095 22.3504 30.6152 23.4049 31.6697L20.0451 35.0295ZM14.0253 27.4549C15.2646 27.1215 16.5669 27.1215 17.8063 27.4549L16.5776 32.0434C16.1442 31.9261 15.6874 31.9261 15.2539 32.0434L14.0253 27.4549ZM65.2556 27.021L67.5799 29.3454L64.2233 32.702L61.8958 30.3777L65.2556 27.021ZM67.5768 44.3332C66.5223 45.3877 65.6198 46.2934 64.8154 46.9615C63.9858 47.6582 63.0864 48.2504 61.9781 48.5449L60.7463 43.9595C60.9141 43.9152 61.1959 43.7949 61.7723 43.3167C62.3739 42.8132 63.1023 42.0912 64.2169 40.9734L67.5768 44.3332ZM55.9551 40.9734C57.0698 42.0912 57.7981 42.8132 58.3998 43.3167C58.9729 43.7949 59.2548 43.9152 59.4226 43.9595L58.1939 48.548C57.0856 48.2504 56.1863 47.655 55.3566 46.9647C54.5523 46.2934 53.6498 45.3877 52.5953 44.3332L55.9551 40.9734ZM61.9749 48.548C60.7366 48.8809 59.4323 48.8809 58.1939 48.548L59.4226 43.9595C59.856 44.0768 60.3129 44.0768 60.7463 43.9595L61.9749 48.548ZM64.2169 40.9734C65.3348 39.8555 66.0599 39.1272 66.5603 38.5287C67.0416 37.9524 67.1619 37.6705 67.2063 37.5027L71.7916 38.7314C71.4971 39.8397 70.9018 40.739 70.2083 41.5687C69.5369 42.373 68.6313 43.2787 67.5768 44.3332L64.2169 40.9734ZM67.5768 29.3517C68.6313 30.4062 69.5401 31.3055 70.2083 32.113C70.9018 32.9427 71.4971 33.842 71.7916 34.9504L67.2063 36.179C67.1588 36.0112 67.0416 35.7294 66.5603 35.153C66.0599 34.5514 65.3348 33.823 64.2169 32.7084L67.5768 29.3517ZM67.2063 37.5027C67.3236 37.0693 67.3236 36.6125 67.2063 36.179L71.7916 34.9504C72.1241 36.1885 72.1241 37.4932 71.7916 38.7314L67.2063 37.5027ZM31.6668 8.42321C32.7244 7.36871 33.6269 6.45988 34.4313 5.79171C35.2609 5.09821 36.1603 4.50288 37.2686 4.20838L38.4973 8.79688C38.3294 8.84121 38.0476 8.95838 37.4713 9.43971C36.8696 9.94004 36.1413 10.6652 35.0266 11.783L31.6668 8.42321ZM43.2916 11.7799C42.5092 10.9656 41.6936 10.1838 40.8469 9.43655C40.2706 8.96155 39.9888 8.84121 39.8209 8.79688L41.0496 4.20521C42.1579 4.50288 43.0573 5.09821 43.8869 5.78855C44.6944 6.46305 45.5969 7.36871 46.6514 8.42321L43.2916 11.7799ZM37.2718 4.21155C38.5101 3.8787 39.8144 3.8787 41.0528 4.21155L39.8241 8.79688C39.3907 8.67957 38.9339 8.68274 38.5004 8.80005L37.2718 4.21155ZM35.0298 11.7862C33.9119 12.9009 33.1899 13.6292 32.6864 14.2309C32.2083 14.8072 32.0879 15.0859 32.0436 15.2569L27.4551 14.0219C27.7528 12.9135 28.3481 12.0142 29.0384 11.1845C29.7098 10.3802 30.6154 9.47771 31.6699 8.42321L35.0298 11.7862ZM31.6731 23.4079C30.6154 22.3534 29.7098 21.4509 29.0384 20.6465C28.3481 19.8169 27.7528 18.9175 27.4551 17.8092L32.0436 16.5774C32.0879 16.7452 32.2083 17.0302 32.6864 17.6034C33.1899 18.205 33.9119 18.9334 35.0298 20.0512L31.6731 23.4079ZM32.0436 15.2569C31.9263 15.6903 31.9263 16.144 32.0436 16.5774L27.4551 17.8092C27.1217 16.5699 27.1217 15.2612 27.4551 14.0219L32.0436 15.2569ZM11.7833 43.2945L22.2396 53.7572L18.8829 57.1139L8.42028 46.6544L11.7833 43.2945ZM46.6514 8.42321L57.1109 18.8859L53.7543 22.2425L43.2948 11.7799L46.6514 8.42321ZM40.9704 55.9549L37.4839 52.4652L40.8406 49.1085L44.3303 52.5919L40.9704 55.9549ZM37.4839 49.1054L49.1056 37.4837L52.4654 40.8404L40.8438 52.4652L37.4839 49.1054ZM52.5953 44.3332L49.1056 40.8435L52.4654 37.4869L55.9551 40.9734L52.5953 44.3332ZM37.4839 52.4715L23.5348 38.5192L26.8914 35.1625L40.8406 49.1085L37.4839 52.4715ZM23.5348 38.5192L20.0451 35.0295L23.4018 31.6729L26.8914 35.1562L23.5348 38.5192ZM38.5163 26.8975L26.8946 38.5192L23.5348 35.1625L35.1564 23.5377L38.5163 26.8975ZM49.1088 40.8435L35.1596 26.8975L38.5163 23.5377L52.4654 37.4869L49.1088 40.8435ZM35.1596 26.8975L31.6668 23.4015L35.0266 20.0449L38.5131 23.5282L35.1596 26.8975ZM61.8926 30.3809C61.1404 29.6269 60.7179 28.6054 60.7179 27.5404C60.7179 26.4754 61.1404 25.4538 61.8926 24.6999L65.2493 28.0565C65.3172 27.9889 65.3712 27.9084 65.408 27.8199C65.4448 27.7313 65.4638 27.6363 65.4638 27.5404C65.4638 27.4445 65.4448 27.3495 65.408 27.2609C65.3712 27.1723 65.3172 27.0919 65.2493 27.0242L61.8926 30.3809ZM27.0213 65.2522C27.3063 65.5372 27.7686 65.5404 28.0568 65.2554L24.6969 61.8987C25.451 61.1455 26.4732 60.7224 27.539 60.7224C28.6048 60.7224 29.627 61.1455 30.3811 61.8987L27.0213 65.2522Z" fill="#A6A6A6"/>
</svg>
