<svg width="57" height="69" viewBox="0 0 57 69" fill="none" xmlns="http://www.w3.org/2000/svg">
<path d="M38.4799 20.5567C37.2553 20.72 35.6887 21.0133 33.98 21.4512M33.98 21.4512C28.7124 22.8013 23.114 25.4696 20.9998 30C18.1998 36 20.6663 40.6667 22.9998 42C25.3332 43.3333 30.3801 44 33.98 40C37.58 36 35.48 26.3197 33.98 21.4512ZM33.98 21.4512C30.98 15.8197 22.08 6.55674 10.48 14.5567C-1.11995 22.5567 3.31338 37.5565 6.98005 44.0564C9.14661 48.3898 15.0797 58.3564 21.4797 63.5564C27.8797 68.7564 33.4797 65.7231 35.4797 63.5564C40.4998 60 45.4797 51.2564 47.4797 48.0564C49.9797 44.0564 54.9797 33.5561 53.4797 24.0564C51.9797 14.5567 42.9797 2.05642 27.4797 3.05642" stroke="#A6A6A6" stroke-width="5" stroke-linecap="round" stroke-linejoin="round"/>
</svg>
